<mxfile host="www.draw.io" modified="2020-02-03T03:14:08.879Z" agent="Mozilla/5.0 (Windows NT 10.0; Win64; x64) AppleWebKit/537.36 (KHTML, like Gecko) Chrome/79.0.3945.130 Safari/537.36" etag="LOQ6aeNBXH6qMxB905F8" version="12.6.4" type="github">
  <diagram id="1pkOPD2tN872ybyZ4b0a" name="Page-1">
    <mxGraphModel dx="1422" dy="794" grid="1" gridSize="10" guides="1" tooltips="1" connect="1" arrows="1" fold="1" page="1" pageScale="1" pageWidth="1169" pageHeight="827" math="0" shadow="0">
      <root>
        <mxCell id="0"/>
        <mxCell id="1" parent="0"/>
        <mxCell id="3GT3_tIaPKossPLVTqcz-1" value="Bob" style="shape=umlActor;verticalLabelPosition=bottom;labelBackgroundColor=#ffffff;verticalAlign=top;html=1;outlineConnect=0;" vertex="1" parent="1">
          <mxGeometry x="50" y="120" width="30" height="60" as="geometry"/>
        </mxCell>
        <mxCell id="3GT3_tIaPKossPLVTqcz-2" value="https:www.amacviolins.com" style="whiteSpace=wrap;html=1;aspect=fixed;" vertex="1" parent="1">
          <mxGeometry x="280" y="70" width="160" height="160" as="geometry"/>
        </mxCell>
        <mxCell id="3GT3_tIaPKossPLVTqcz-3" value="https:www.amacviolins.com" style="whiteSpace=wrap;html=1;aspect=fixed;" vertex="1" parent="1">
          <mxGeometry x="740" y="70" width="160" height="160" as="geometry"/>
        </mxCell>
        <mxCell id="3GT3_tIaPKossPLVTqcz-4" value="Web Browser" style="text;html=1;align=center;verticalAlign=middle;resizable=0;points=[];autosize=1;" vertex="1" parent="1">
          <mxGeometry x="315" y="230" width="90" height="20" as="geometry"/>
        </mxCell>
        <mxCell id="3GT3_tIaPKossPLVTqcz-5" value="Web Server" style="text;html=1;align=center;verticalAlign=middle;resizable=0;points=[];autosize=1;" vertex="1" parent="1">
          <mxGeometry x="780" y="230" width="80" height="20" as="geometry"/>
        </mxCell>
        <mxCell id="3GT3_tIaPKossPLVTqcz-6" value="" style="endArrow=classic;html=1;entryX=0;entryY=0.25;entryDx=0;entryDy=0;exitX=1;exitY=0.25;exitDx=0;exitDy=0;" edge="1" parent="1" source="3GT3_tIaPKossPLVTqcz-2" target="3GT3_tIaPKossPLVTqcz-3">
          <mxGeometry width="50" height="50" relative="1" as="geometry">
            <mxPoint x="180" y="320" as="sourcePoint"/>
            <mxPoint x="230" y="270" as="targetPoint"/>
          </mxGeometry>
        </mxCell>
        <mxCell id="3GT3_tIaPKossPLVTqcz-7" value="Web Browser request Digital Certificate" style="whiteSpace=wrap;html=1;shape=partialRectangle;top=0;left=0;bottom=1;right=0;points=[[0,1],[1,1]];strokeColor=#000000;fillColor=none;align=center;verticalAlign=bottom;routingCenterY=0.5;snapToPoint=1;container=1;recursiveResize=0;autosize=1;treeFolding=1;treeMoving=1;" vertex="1" parent="1">
          <mxGeometry x="620" y="40" width="130" height="20" as="geometry"/>
        </mxCell>
        <mxCell id="3GT3_tIaPKossPLVTqcz-8" value="" style="edgeStyle=entityRelationEdgeStyle;startArrow=none;endArrow=none;segment=10;curved=1;dashed=1;" edge="1" target="3GT3_tIaPKossPLVTqcz-7" parent="1">
          <mxGeometry relative="1" as="geometry">
            <mxPoint x="570" y="110" as="sourcePoint"/>
          </mxGeometry>
        </mxCell>
        <mxCell id="3GT3_tIaPKossPLVTqcz-9" value="" style="endArrow=classic;html=1;entryX=1;entryY=0.75;entryDx=0;entryDy=0;exitX=0;exitY=0.75;exitDx=0;exitDy=0;fillColor=#f8cecc;strokeColor=#b85450;" edge="1" parent="1" source="3GT3_tIaPKossPLVTqcz-3" target="3GT3_tIaPKossPLVTqcz-2">
          <mxGeometry width="50" height="50" relative="1" as="geometry">
            <mxPoint x="180" y="320" as="sourcePoint"/>
            <mxPoint x="230" y="270" as="targetPoint"/>
          </mxGeometry>
        </mxCell>
        <mxCell id="3GT3_tIaPKossPLVTqcz-10" value="Digital Certificate" style="text;html=1;align=center;verticalAlign=middle;resizable=0;points=[];autosize=1;" vertex="1" parent="1">
          <mxGeometry x="575" y="170" width="110" height="20" as="geometry"/>
        </mxCell>
        <mxCell id="3GT3_tIaPKossPLVTqcz-11" value="Web Browser cannot recognize the issuer of the Digital Certificate" style="whiteSpace=wrap;html=1;shape=partialRectangle;top=0;left=0;bottom=1;right=0;points=[[0,1],[1,1]];strokeColor=#000000;fillColor=none;align=center;verticalAlign=bottom;routingCenterY=0.5;snapToPoint=1;container=1;recursiveResize=0;autosize=1;treeFolding=1;treeMoving=1;" vertex="1" parent="1">
          <mxGeometry x="530" y="370" width="140" height="20" as="geometry"/>
        </mxCell>
        <mxCell id="3GT3_tIaPKossPLVTqcz-13" value="" style="endArrow=classic;html=1;entryX=0;entryY=0.25;entryDx=0;entryDy=0;" edge="1" parent="1" source="3GT3_tIaPKossPLVTqcz-1" target="3GT3_tIaPKossPLVTqcz-2">
          <mxGeometry width="50" height="50" relative="1" as="geometry">
            <mxPoint x="50" y="460" as="sourcePoint"/>
            <mxPoint x="100" y="410" as="targetPoint"/>
          </mxGeometry>
        </mxCell>
        <mxCell id="3GT3_tIaPKossPLVTqcz-14" value="" style="endArrow=classic;html=1;exitX=0;exitY=0.75;exitDx=0;exitDy=0;fillColor=#f8cecc;strokeColor=#b85450;" edge="1" parent="1" source="3GT3_tIaPKossPLVTqcz-2">
          <mxGeometry width="50" height="50" relative="1" as="geometry">
            <mxPoint x="50" y="460" as="sourcePoint"/>
            <mxPoint x="80" y="150" as="targetPoint"/>
          </mxGeometry>
        </mxCell>
        <mxCell id="3GT3_tIaPKossPLVTqcz-15" value="Web Browser warns the user because the server has failed to prove that they are www.amacviolins.com" style="whiteSpace=wrap;html=1;shape=partialRectangle;top=0;left=0;bottom=1;right=0;points=[[0,1],[1,1]];strokeColor=#000000;fillColor=none;align=center;verticalAlign=bottom;routingCenterY=0.5;snapToPoint=1;container=1;recursiveResize=0;autosize=1;treeFolding=1;treeMoving=1;" vertex="1" parent="1">
          <mxGeometry x="80" y="350" width="200" height="20" as="geometry"/>
        </mxCell>
        <mxCell id="3GT3_tIaPKossPLVTqcz-16" value="" style="endArrow=none;dashed=1;html=1;" edge="1" parent="1">
          <mxGeometry width="50" height="50" relative="1" as="geometry">
            <mxPoint x="180" y="310" as="sourcePoint"/>
            <mxPoint x="210" y="180" as="targetPoint"/>
          </mxGeometry>
        </mxCell>
        <mxCell id="3GT3_tIaPKossPLVTqcz-17" value="" style="endArrow=none;dashed=1;html=1;entryX=0.4;entryY=1;entryDx=0;entryDy=0;entryPerimeter=0;" edge="1" parent="1" target="3GT3_tIaPKossPLVTqcz-10">
          <mxGeometry width="50" height="50" relative="1" as="geometry">
            <mxPoint x="600" y="340" as="sourcePoint"/>
            <mxPoint x="619" y="200" as="targetPoint"/>
          </mxGeometry>
        </mxCell>
      </root>
    </mxGraphModel>
  </diagram>
</mxfile>
